<svg width="46" height="16" viewBox="0 0 46 16" fill="none" xmlns="http://www.w3.org/2000/svg">
<path d="M17.4708 1.16758L11.7422 15.2705H7.95969L5.05163 4.01592C4.87503 3.32271 4.72317 3.06875 4.19496 2.77669C3.33279 2.30076 1.91031 1.85468 0.659326 1.57768L0.742199 1.16782L6.83096 1.16782C7.60708 1.16782 8.30735 1.69455 8.48802 2.60574L10.0347 10.7663L13.7118 1.16758L17.4708 1.16758ZM32.3381 10.6659C32.3352 6.94374 27.2706 6.73869 27.2973 5.07596C27.3057 4.56993 27.7756 4.03191 28.8094 3.89458C29.3218 3.82616 30.7342 3.77395 32.3402 4.52572L32.9541 1.53512C32.0915 1.21673 30.9823 0.910095 29.6039 0.910095C26.067 0.910095 23.5873 2.82702 23.5797 5.57189C23.5668 7.60215 25.3718 8.73509 26.7308 9.40973C28.1289 10.1006 28.599 10.5445 28.5968 11.1625C28.5915 12.1085 27.491 12.5261 26.4608 12.5426C24.6624 12.5708 23.6162 12.0464 22.7823 11.6521L22.1488 14.7417C22.9868 15.1327 24.5317 15.4739 26.1318 15.4911C29.8911 15.4909 32.3409 13.5979 32.3381 10.6659ZM41.7003 15.2705H45.0098L42.0521 1.16758L38.9975 1.16758C38.3106 1.16758 37.7332 1.57533 37.4798 2.20223L32.1738 15.2705H35.9312L36.6671 13.1639L41.258 13.1639L41.7003 15.2705ZM37.6832 10.2734L39.5408 4.97838L40.6507 10.2734H37.6832ZM22.5837 1.16758L19.6937 15.2705H16.1155L19.0066 1.16758L22.5837 1.16758Z" fill="white"/>
</svg>
