<svg width="35" height="54" viewBox="0 0 35 54" fill="none" xmlns="http://www.w3.org/2000/svg">
<g clip-path="url(#clip0_101_233)">
<path d="M26.9348 17.4202C26.7037 17.0754 26.3793 16.9188 26.0618 16.9989C25.7438 17.0787 25.4692 17.385 25.3216 17.8247C24.8143 19.3373 24.1698 20.7273 23.4116 21.9561C23.4872 21.0685 23.5252 20.1755 23.5252 19.2802C23.5252 17.5622 23.3752 15.7943 23.0791 14.025C22.1057 8.2134 19.5532 3.29861 16.0763 0.54092C15.7736 0.300908 15.4129 0.309335 15.1151 0.563392C14.8172 0.817553 14.6222 1.28353 14.5955 1.80476C14.3244 7.08606 12.5517 11.8909 9.72917 14.9903C9.69182 15.0316 9.65474 15.0735 9.61765 15.1151C9.54084 15.2013 9.46843 15.2829 9.40077 15.3513C9.3902 15.3622 9.37969 15.3732 9.36938 15.3845C7.59422 17.3349 6.1295 19.9348 5.13337 22.9039C4.12118 25.9239 3.60797 29.1648 3.60797 32.5361C3.60797 34.2535 3.758 36.0214 4.05393 37.7911C5.6156 47.1187 11.0856 53.6332 17.3561 53.6332C24.9364 53.6332 31.1033 44.169 31.1033 32.5361C31.1033 26.7995 29.6229 21.4312 26.9348 17.4202Z" fill="#FF5555"/>
<ellipse cx="16.3348" cy="31.7" rx="4.08369" ry="6.26667" fill="white"/>
</g>
<defs>
<clipPath id="clip0_101_233">
<rect width="34.7114" height="53.2667" fill="white" transform="translate(0 0.366699)"/>
</clipPath>
</defs>
</svg>
