<svg width="48" height="49" viewBox="0 0 48 49" fill="none" xmlns="http://www.w3.org/2000/svg">
<circle cx="24.0001" cy="24.4881" r="24" fill="#FF5555"/>
<path d="M26.0001 33.4881H22.0001M30.0001 20.4881C30.0001 18.8968 29.3679 17.3706 28.2427 16.2454C27.1175 15.1202 25.5914 14.4881 24.0001 14.4881C22.4088 14.4881 20.8827 15.1202 19.7574 16.2454C18.6322 17.3706 18.0001 18.8968 18.0001 20.4881C18.0001 23.5782 17.2205 25.694 16.3497 27.0935C15.6152 28.2739 15.2479 28.8642 15.2614 29.0288C15.2763 29.2111 15.3149 29.2807 15.4619 29.3896C15.5945 29.4881 16.1927 29.4881 17.3889 29.4881H30.6112C31.8075 29.4881 32.4056 29.4881 32.5383 29.3896C32.6852 29.2807 32.7238 29.2111 32.7388 29.0288C32.7522 28.8642 32.385 28.2739 31.6504 27.0935C30.7796 25.694 30.0001 23.5782 30.0001 20.4881Z" stroke="white" stroke-width="2" stroke-linecap="round" stroke-linejoin="round"/>
</svg>
