<svg width="68" height="47" viewBox="0 0 68 47" fill="none" xmlns="http://www.w3.org/2000/svg">
<path d="M7.105 36.4371C8.16261 36.4371 9.09819 36.1406 9.91173 35.5476C10.7253 34.9234 11.3456 33.9871 11.7727 32.7386V35.8753H16.0438V10.3137H11.4676V25.248C11.4676 26.7149 11.1829 27.901 10.6134 28.8061C10.0439 29.68 9.31174 30.1169 8.41684 30.1169C7.52194 30.1169 6.78975 29.68 6.22027 28.8061C5.65079 27.901 5.36605 26.7149 5.36605 25.248V10.3137H0.789856V25.8098C0.789856 28.9933 1.32883 31.5682 2.40678 33.5345C3.50506 35.4696 5.07114 36.4371 7.105 36.4371Z" fill="black"/>
<path d="M19.3885 8.01966H23.9647V0.997218H19.3885V8.01966ZM19.3885 35.8753H23.9647V10.3137H19.3885V35.8753Z" fill="black"/>
<path d="M29.3269 35.8753H33.9031V16.3998H37.4726V10.3137H33.9031V9.93912C33.9031 7.66073 34.7675 6.52154 36.4963 6.52154C36.781 6.52154 37.1166 6.56835 37.5031 6.66199V0.669506C37.0353 0.513452 36.4963 0.435425 35.8861 0.435425C33.8116 0.435425 32.1947 1.26251 31.0354 2.91668C29.8964 4.57086 29.3269 6.91167 29.3269 9.93912V10.3137H26.5202V16.3998H29.3269V35.8753Z" fill="black"/>
<path d="M39.8264 35.8753H44.4026V22.1113C44.4026 20.2075 44.7484 18.7406 45.4399 17.7106C46.1314 16.6495 47.0365 16.1189 48.1551 16.1189H49.589V10.0328H48.6127C47.5958 10.0328 46.6907 10.3293 45.8975 10.9223C45.1246 11.4841 44.5247 12.5608 44.0975 14.1526V10.3137H39.8264V35.8753Z" fill="black"/>
<path d="M54.1878 46.2685C57.2386 46.2685 59.4453 43.6 60.808 38.2629L67.9469 10.3137H63.0351L59.0996 26.7462L55.1641 10.3137H50.2523L56.8115 35.8753L56.5064 36.9521C56.2623 37.7948 55.9471 38.5438 55.5607 39.1993C55.1742 39.8547 54.5336 40.1824 53.6387 40.1824C52.9065 40.1824 52.215 40.0264 51.5641 39.7142V45.4726C51.9099 45.7535 52.3065 45.9564 52.7539 46.0813C53.2217 46.2061 53.6997 46.2685 54.1878 46.2685Z" fill="black"/>
</svg>
